HIERARCHY
ROOT Hips
{
	OFFSET 0.00000 0.00000 0.00000
	CHANNELS 6 Xposition Yposition Zposition Zrotation Yrotation Xrotation 
	JOINT LHipJoint
	{
		OFFSET 0 0 0
		CHANNELS 3 Zrotation Yrotation Xrotation
		JOINT LeftHip
		{
			OFFSET 1.53139 -1.83434 0.76626
			CHANNELS 3 Zrotation Yrotation Xrotation
			JOINT LeftKnee
			{
				OFFSET 2.56112 -7.03663 0.00000
				CHANNELS 3 Zrotation Yrotation Xrotation
				JOINT LeftAnkle
				{
					OFFSET 2.59983 -7.14299 0.00000
					CHANNELS 3 Zrotation Yrotation Xrotation
					JOINT LeftToe
					{
						OFFSET 0.13742 -0.37757 2.00054
						CHANNELS 3 Zrotation Yrotation Xrotation
						End Site
						{
							OFFSET 0.00000 -0.00000 1.02897
						}
					}
				}
			}
		}
	}
	JOINT RHipJoint
	{
		OFFSET 0 0 0
		CHANNELS 3 Zrotation Yrotation Xrotation
		JOINT RightHip
		{
			OFFSET -1.40122 -1.83435 0.76627
			CHANNELS 3 Zrotation Yrotation Xrotation
			JOINT RightKnee
			{
				OFFSET -2.54052 -6.98003 0.00000
				CHANNELS 3 Zrotation Yrotation Xrotation
				JOINT RightAnkle
				{
					OFFSET -2.63179 -7.23079 0.00000
					CHANNELS 3 Zrotation Yrotation Xrotation
					JOINT RightToe
					{
						OFFSET -0.24131 -0.66299 2.03908
						CHANNELS 3 Zrotation Yrotation Xrotation
						End Site
						{
							OFFSET -0.00000 -0.00000 1.07391
						}
					}
				}
			}
		}
	}
	JOINT lowerback
	{
		OFFSET 0 0 0
		CHANNELS 3 Zrotation Yrotation Xrotation
		JOINT Chest
		{
			OFFSET 0.01174 2.10302 -0.29778
			CHANNELS 3 Zrotation Yrotation Xrotation
			JOINT Chest2
			{
				OFFSET 0.00772 2.13227 -0.01247
				CHANNELS 3 Zrotation Yrotation Xrotation
				JOINT lowerneck
				{
					OFFSET 0 0 0
					CHANNELS 3 Zrotation Yrotation Xrotation
					JOINT Neck
					{
						OFFSET -0.09219 1.60848 0.31481
						CHANNELS 3 Zrotation Yrotation Xrotation
						JOINT Head
						{
							OFFSET 0.13974 1.65456 -0.31134
							CHANNELS 3 Zrotation Yrotation Xrotation
							End Site
							{
								OFFSET 0.04742 1.69515 -0.14578
							}
						}
					}
				}
				JOINT LeftCollar
				{
					OFFSET 0 0 0
					CHANNELS 3 Zrotation Yrotation Xrotation
					JOINT LeftShoulder
					{
						OFFSET 3.24909 1.02882 -0.23993
CHANNELS 3 Zrotation Xrotation Yrotation
						JOINT LeftElbow
						{
OFFSET 0 -5.329550 -0.000000
CHANNELS 3 Zrotation Xrotation Yrotation
							JOINT LeftWrist
							{
OFFSET 0 -3.692320 -0.000000
CHANNELS 3 Zrotation Xrotation Yrotation
								JOINT lhand
								{
									OFFSET 0 0 0
CHANNELS 3 Zrotation Xrotation Yrotation
									JOINT LFingers
									{
OFFSET 0 -0.536600 -0.000000
CHANNELS 3 Zrotation Xrotation Yrotation
										End Site
										{
OFFSET 0 -0.432620 -0.000000
										}
									}
								}
								JOINT LThumb
								{
OFFSET 0 0.000000 0.000000
CHANNELS 3 Zrotation Xrotation Yrotation
									End Site
									{
OFFSET 0 -0.439220 0.439220
									}
								}
							}
						}
					}
				}
				JOINT RightCollar
				{
					OFFSET 0 0 0
					CHANNELS 3 Zrotation Yrotation Xrotation
					JOINT RightShoulder
					{
						OFFSET -3.21387 0.93002 -0.34594
CHANNELS 3 Zrotation Xrotation Yrotation
						JOINT RightElbow
						{
OFFSET 0 -5.234310 0.000000
CHANNELS 3 Zrotation Xrotation Yrotation
							JOINT RightWrist
							{
OFFSET 0 -3.553010 -0.000000
CHANNELS 3 Zrotation Xrotation Yrotation
								JOINT rhand
								{
									OFFSET 0 0 0
CHANNELS 3 Zrotation Xrotation Yrotation
									JOINT RFingers
									{
OFFSET 0 -0.772520 -0.000000
CHANNELS 3 Zrotation Xrotation Yrotation
										End Site
										{
OFFSET 0 -0.622830 -0.000000
										}
									}
								}
								JOINT RThumb
								{
OFFSET 0 0.000000 0.000000
CHANNELS 3 Zrotation Xrotation Yrotation
									End Site
									{
OFFSET 0 -0.632340 0.632340
									}
								}
							}
						}
					}
				}
			}
		}
	}
}
MOTION
Frames: 11
Frame Time: 0.008333333333333333
3.727771 17.925983 10.503059 -359.675927 129.588942 2.553321 0.000000 0.000000 0.000000 -27.815784 -15.892091 4.494317 1.979865 8.823914 25.246025 -0.766100 -17.867705 -3.327035 0.189184 2.800903 7.724928 0.000000 0.000000 0.000000 14.949922 7.631936 -27.389105 -2.631917 -10.072415 29.212838 -0.047212 11.270927 -8.608896 -1.523985 7.794358 -22.091445 -2.858743 5.323274 12.268221 -3.544897 6.810444 2.574715 -3.170201 3.503958 -4.020987 -5.557077 5.531977 -15.168437 1.226510 18.207673 46.134314 5.791214 7.781833 20.162840 0.000000 0.000000 0.000000 2.346459 8.064607 -15.649754 17.710252 -27.784526 4.413298 23.922573 16.087057 -25.085793 0.000000 0.000000 0.000000 -7.125000 0.000000 0.000000 -6.296004 56.987120 1.854524 0.000000 0.000000 0.000000 -3.814769 -1.032585 15.848753 -23.874272 -35.030940 -7.634329 -17.276664 -0.781702 -8.049672 0.000000 0.000000 0.000000 7.125000 0.000000 0.000000 6.935871 21.578919 3.927080
3.065795 18.023589 10.870699 -360.786334 124.932972 0.395363 0.000000 0.000000 0.000000 -28.309279 -14.290458 1.350970 2.182574 9.236418 26.537742 -0.774786 -16.894984 -1.273735 0.187996 2.792476 7.701626 0.000000 0.000000 0.000000 14.341237 7.145135 -24.189806 -4.433921 -12.714999 38.313164 -0.534925 2.540884 -13.181305 -1.252923 7.094864 -19.997464 -2.213464 5.352782 11.846261 -3.973949 6.963368 2.794181 -3.926173 3.589661 -3.426047 -6.395438 5.356761 -15.588169 2.097101 17.481581 46.449038 6.236957 7.382240 20.254962 0.000000 0.000000 0.000000 2.867540 8.590541 -13.838736 17.947222 -28.089477 4.524362 23.809213 15.534199 -25.158621 0.000000 0.000000 0.000000 -7.125000 0.000000 0.000000 -6.448963 57.038079 1.908354 0.000000 0.000000 0.000000 -2.590863 -1.557852 19.893429 -24.727148 -35.923412 -8.129369 -16.130395 0.717514 -9.151995 0.000000 0.000000 0.000000 7.125000 0.000000 0.000000 7.740817 20.499230 4.581107
2.476640 18.104211 11.236582 -359.644930 121.337970 0.464692 0.000000 0.000000 0.000000 -26.720656 -12.302915 -1.728685 2.319001 9.501185 27.375881 -0.808217 -16.630144 0.239568 0.231359 3.092637 8.537016 0.000000 0.000000 0.000000 15.478470 5.141942 -19.499776 -6.196758 -14.615908 45.765525 -0.524519 0.155752 -13.631563 -0.729719 5.457166 -15.217277 -1.557182 5.230399 11.336952 -3.339757 6.834120 2.389915 -3.578604 3.486279 -3.583117 -6.420568 5.217362 -15.056346 2.038635 16.636235 46.037502 5.938091 7.061074 19.872630 0.000000 0.000000 0.000000 2.536130 9.945281 -12.502880 18.362238 -28.618442 4.721464 24.296331 14.419525 -25.109016 0.000000 0.000000 0.000000 -7.125000 0.000000 0.000000 -5.900866 57.093143 1.753105 0.000000 0.000000 0.000000 -2.148079 -0.382208 22.671284 -25.886157 -37.096021 -8.818876 -15.919146 1.571704 -9.094886 0.000000 0.000000 0.000000 7.125000 0.000000 0.000000 7.893180 20.569275 4.660588
1.914569 18.195443 11.630466 -358.952594 119.624327 0.840150 0.000000 0.000000 0.000000 -25.258346 -10.887850 -4.658849 2.237931 9.344998 26.880615 -0.903583 -16.957699 2.354052 0.076425 1.765896 4.859544 0.000000 0.000000 0.000000 16.428266 1.348172 -14.272365 -7.358904 -15.626651 50.218757 -0.421741 0.991325 -11.961297 -0.689455 5.290189 -14.742137 -2.362890 4.534812 11.211017 -2.271072 5.746254 1.479195 -1.916138 2.916219 -4.705517 -6.791532 4.948176 -14.640830 2.381858 16.005179 46.501223 6.058111 6.780160 20.016181 0.000000 0.000000 0.000000 2.202174 11.590755 -12.826892 18.938843 -29.342534 5.000914 25.024326 14.504695 -24.901052 0.000000 0.000000 0.000000 -7.125000 0.000000 0.000000 -5.029323 57.034349 1.488342 0.000000 0.000000 0.000000 -1.984297 0.958136 23.131730 -26.210111 -37.414916 -9.015219 -15.705106 1.199157 -8.874673 0.000000 0.000000 0.000000 7.125000 0.000000 0.000000 8.051516 20.806522 4.712554
1.327012 18.258898 12.049592 -357.022661 118.727788 2.754873 0.000000 0.000000 0.000000 -23.245288 -11.588255 -7.651132 2.299510 9.463874 27.257442 -0.892666 -16.656093 3.434047 0.012592 0.582890 1.602425 0.000000 0.000000 0.000000 18.293693 -2.226582 -8.388624 -7.169384 -15.472788 49.511770 -0.229222 3.389553 -8.510967 -0.657749 5.187344 -14.443742 -0.909702 4.123540 9.903223 -2.115224 5.412886 1.791388 -2.375680 2.735244 -3.544115 -6.711954 4.244436 -14.633438 2.794518 13.891973 45.737568 5.753401 6.004696 19.568576 0.000000 0.000000 0.000000 4.299545 9.149206 -14.814060 19.105092 -29.549000 5.082557 27.258338 15.304765 -23.234653 0.000000 0.000000 0.000000 -7.125000 0.000000 0.000000 -2.036596 55.745454 0.540443 0.000000 0.000000 0.000000 -0.467919 0.547073 20.819465 -26.382270 -37.583711 -9.119775 -16.064983 0.518084 -8.541015 0.000000 0.000000 0.000000 7.125000 0.000000 0.000000 7.800790 21.131303 4.505156
0.675779 18.237787 12.512127 -354.131356 117.648152 5.563813 0.000000 0.000000 0.000000 -20.709245 -13.794437 -10.923726 2.517360 9.869276 28.554481 -0.767302 -15.541242 2.806289 0.002629 0.277986 0.763907 0.000000 0.000000 0.000000 21.152145 -3.704010 -2.029624 -5.831247 -14.261588 44.298325 -0.084137 3.541619 -5.359001 -0.354781 3.826473 -10.589051 0.143706 3.775702 9.981335 -1.369929 5.053983 1.498186 -2.164050 2.529126 -3.881466 -7.349684 3.353601 -13.926455 3.138978 12.271232 45.801118 5.690520 5.320023 19.445278 0.000000 0.000000 0.000000 5.072341 7.840467 -14.247506 20.921934 -31.736499 6.009089 22.186996 14.156577 -26.831497 0.000000 0.000000 0.000000 -7.125000 0.000000 0.000000 -8.972845 58.401280 2.956435 0.000000 0.000000 0.000000 -0.458638 1.071853 20.578847 -25.989728 -37.198616 -8.881487 -16.270103 0.596727 -7.934720 0.000000 0.000000 0.000000 7.125000 0.000000 0.000000 7.667536 21.745792 4.319020
-0.065986 18.112202 13.007045 -351.917245 115.986768 8.405592 0.000000 0.000000 0.000000 -18.205320 -16.634084 -14.982631 2.768470 10.310512 29.988285 -0.536261 -13.099240 2.100182 0.022894 0.973138 2.674942 0.000000 0.000000 0.000000 23.504425 -3.808502 3.651087 -3.547921 -11.532006 34.097381 -0.002220 -2.789677 -4.127708 -0.020918 -0.929443 2.554761 1.240068 3.892726 10.060942 -0.727893 5.341018 1.404318 -2.154435 2.651529 -3.975785 -8.985768 2.287395 -13.640995 3.302628 10.711412 45.471363 5.714954 4.446792 19.172739 0.000000 0.000000 0.000000 5.934460 6.239079 -16.280220 23.866277 -35.022175 7.629784 21.955819 11.601642 -26.250582 0.000000 0.000000 0.000000 -7.125000 0.000000 0.000000 -8.939503 57.756677 2.806434 0.000000 0.000000 0.000000 -1.442199 0.571618 20.893081 -25.675602 -36.886602 -8.692199 -16.841646 0.311181 -7.325387 0.000000 0.000000 0.000000 7.125000 0.000000 0.000000 7.267958 22.349572 3.989565
-0.963241 17.951927 13.563011 -352.781865 113.725710 8.921491 0.000000 0.000000 0.000000 -16.308566 -18.729742 -19.800278 2.721150 10.229262 29.722498 -0.444141 -11.749185 3.353631 0.036195 1.208582 3.323241 0.000000 0.000000 0.000000 23.404332 -4.024912 5.777469 -1.850102 -8.545485 24.384279 -0.265488 -2.344067 -10.872815 -0.530321 4.664246 -12.953798 1.377906 4.011708 11.024112 -1.227490 5.500971 1.226964 -2.858976 2.711347 -4.625445 -8.464388 1.651741 -13.667648 2.580684 9.613962 45.237236 5.070437 3.954145 19.251154 0.000000 0.000000 0.000000 8.087076 5.039466 -17.640835 27.993828 -39.109538 10.120229 22.153206 9.610890 -26.284069 0.000000 0.000000 0.000000 -7.125000 0.000000 0.000000 -8.742269 57.834524 2.760730 0.000000 0.000000 0.000000 -0.941806 -0.759005 20.459159 -25.611348 -36.822290 -8.653695 -16.473095 0.775185 -7.910276 0.000000 0.000000 0.000000 7.125000 0.000000 0.000000 7.521074 21.761678 4.232404
-1.963714 17.981516 14.086382 -351.659119 112.659229 11.062058 0.000000 0.000000 0.000000 -13.783274 -20.141491 -22.958953 2.067344 9.004721 25.810161 -0.087064 -7.305141 8.101817 0.128559 2.302983 6.344161 0.000000 0.000000 0.000000 24.180702 -3.278485 1.886910 -1.553854 -7.867290 22.311833 -0.462950 -2.041508 -13.758388 -0.576980 4.863960 -13.520982 2.987908 3.681561 12.387153 -0.740625 5.332066 1.702533 -3.310344 2.610435 -4.790197 -9.182132 1.087695 -13.219874 1.023947 9.444132 44.737958 4.348070 3.555881 18.984776 0.000000 0.000000 0.000000 7.188583 2.324772 -16.766343 30.138703 -41.011863 11.500540 21.636237 9.458430 -26.710564 0.000000 0.000000 0.000000 -7.125000 0.000000 0.000000 -9.511493 58.154006 3.079252 0.000000 0.000000 0.000000 -2.200673 -2.804104 19.795104 -25.140877 -36.347690 -8.373318 -17.410668 0.552274 -7.457391 0.000000 0.000000 0.000000 7.125000 0.000000 0.000000 6.850051 22.187324 3.782471
-2.825465 18.033480 14.524531 -351.149613 110.843012 11.628160 0.000000 0.000000 0.000000 -12.748755 -18.615819 -23.125802 1.723482 8.264046 23.519466 -0.372786 -10.808760 5.245789 0.008765 -0.553819 -1.522008 0.000000 0.000000 0.000000 24.500619 -1.522905 -2.966131 -1.961697 -8.785721 25.127436 -0.491010 -1.726826 -13.976034 -0.317110 3.619121 -10.007569 2.665521 3.472449 12.612014 -0.168912 5.069118 2.567251 -2.472208 2.530304 -4.105977 -9.903400 0.233295 -12.842504 1.372153 8.047131 45.020209 4.391148 2.884374 19.122128 0.000000 0.000000 0.000000 5.638808 2.457234 -16.875084 32.423356 -42.881566 13.028180 22.439137 8.726795 -26.448389 0.000000 0.000000 0.000000 -7.125000 0.000000 0.000000 -8.510416 58.066625 2.733962 0.000000 0.000000 0.000000 -3.930681 -3.175051 20.870976 -24.815531 -36.014769 -8.181224 -16.561851 -0.072674 -7.765406 0.000000 0.000000 0.000000 7.125000 0.000000 0.000000 7.460227 21.907376 4.173098
-3.594987 18.110720 14.817826 -354.105674 109.157369 7.761254 0.000000 0.000000 0.000000 -15.042269 -16.162190 -22.403557 3.399798 11.315434 33.351554 -0.348780 -11.376616 -0.744607 0.047109 -1.398758 -3.846751 0.000000 0.000000 0.000000 23.113568 -0.150652 -5.558907 -2.260664 -9.389086 27.020146 -0.435869 -1.373824 -13.045831 -0.231845 3.099267 -8.555322 1.477948 2.834114 13.110064 0.003712 4.104202 3.058301 -1.497156 2.081769 -4.014478 -10.621170 -0.177021 -11.484345 2.216500 6.979255 45.210414 4.677930 2.462349 18.862006 0.000000 0.000000 0.000000 5.084091 5.026288 -19.390351 33.678705 -43.845251 13.889958 22.041050 8.933608 -25.014305 0.000000 0.000000 0.000000 -7.125000 0.000000 0.000000 -8.282343 56.508737 2.348188 0.000000 0.000000 0.000000 -5.395220 -2.238479 21.991736 -24.529525 -35.719277 -8.013615 -15.810333 0.626865 -8.619936 0.000000 0.000000 0.000000 7.125000 0.000000 0.000000 7.982080 21.062821 4.624428
